name Walk5.mot
datacolumns 19
datarows 15
range 1.83800000 1.85200000
endheader

                time	   L_ground_force_vx	   L_ground_force_vy	   L_ground_force_vz	   L_ground_force_px	   L_ground_force_py	   L_ground_force_pz	   R_ground_force_vx	   R_ground_force_vy	   R_ground_force_vz	   R_ground_force_px	   R_ground_force_py	   R_ground_force_pz	   L_ground_torque_x	   L_ground_torque_y	   L_ground_torque_z	   R_ground_torque_x	   R_ground_torque_y	   R_ground_torque_z	
          1.83800000	          0.00000000	          0.00000000	          0.00000000	          0.00000000	          0.00000000	          0.00000000	        -23.04194559	        832.20532946	        -46.02733745	          0.49143440	          0.00000000	          0.12199316	          0.00000000	          0.00000000	          0.00000000	          0.00000000	          1.70826227	          0.00000000	
          1.83900000	          0.00000000	          0.00000000	          0.00000000	          0.00000000	          0.00000000	          0.00000000	        -22.75741749	        830.36943279	        -45.79080015	          0.49177510	          0.00000000	          0.12203028	          0.00000000	          0.00000000	          0.00000000	          0.00000000	          1.64295771	          0.00000000	
          1.84000000	          0.00000000	          0.00000000	          0.00000000	          0.00000000	          0.00000000	          0.00000000	        -22.47978473	        828.44437924	        -45.55848670	          0.49211203	          0.00000000	          0.12204695	          0.00000000	          0.00000000	          0.00000000	          0.00000000	          1.57921006	          0.00000000	
          1.84100000	          0.00000000	          0.00000000	          0.00000000	          0.00000000	          0.00000000	          0.00000000	        -22.19080574	        826.47711019	        -45.31553776	          0.49242907	          0.00000000	          0.12206177	          0.00000000	          0.00000000	          0.00000000	          0.00000000	          1.51786517	          0.00000000	
          1.84200000	          0.00000000	          0.00000000	          0.00000000	          0.00000000	          0.00000000	          0.00000000	        -21.88610602	        824.56873619	        -45.06711599	          0.49270682	          0.00000000	          0.12209433	          0.00000000	          0.00000000	          0.00000000	          0.00000000	          1.45913536	          0.00000000	
          1.84300000	          0.00000000	          0.00000000	          0.00000000	          0.00000000	          0.00000000	          0.00000000	        -21.57899634	        822.81605459	        -44.83280810	          0.49295440	          0.00000000	          0.12214993	          0.00000000	          0.00000000	          0.00000000	          0.00000000	          1.40172215	          0.00000000	
          1.84400000	          0.00000000	          0.00000000	          0.00000000	          0.00000000	          0.00000000	          0.00000000	        -21.28447970	        821.25003586	        -44.62335253	          0.49320711	          0.00000000	          0.12221957	          0.00000000	          0.00000000	          0.00000000	          0.00000000	          1.34113209	          0.00000000	
          1.84500000	          0.00000000	          0.00000000	          0.00000000	          0.00000000	          0.00000000	          0.00000000	        -21.00079203	        819.81975940	        -44.43074068	          0.49349528	          0.00000000	          0.12228345	          0.00000000	          0.00000000	          0.00000000	          0.00000000	          1.27333863	          0.00000000	
          1.84600000	          0.00000000	          0.00000000	          0.00000000	          0.00000000	          0.00000000	          0.00000000	        -20.71259564	        818.44215307	        -44.23935483	          0.49383072	          0.00000000	          0.12232251	          0.00000000	          0.00000000	          0.00000000	          0.00000000	          1.19988268	          0.00000000	
          1.84700000	          0.00000000	          0.00000000	          0.00000000	          0.00000000	          0.00000000	          0.00000000	        -20.41037072	        817.08727614	        -44.04120507	          0.49420495	          0.00000000	          0.12234237	          0.00000000	          0.00000000	          0.00000000	          0.00000000	          1.12587986	          0.00000000	
          1.84800000	          0.00000000	          0.00000000	          0.00000000	          0.00000000	          0.00000000	          0.00000000	        -20.09546333	        815.79385548	        -43.84113638	          0.49458867	          0.00000000	          0.12237405	          0.00000000	          0.00000000	          0.00000000	          0.00000000	          1.05486804	          0.00000000	
          1.84900000	          0.00000000	          0.00000000	          0.00000000	          0.00000000	          0.00000000	          0.00000000	        -19.77065263	        814.58324946	        -43.64838551	          0.49495264	          0.00000000	          0.12243907	          0.00000000	          0.00000000	          0.00000000	          0.00000000	          0.98662871	          0.00000000	
          1.85000000	          0.00000000	          0.00000000	          0.00000000	          0.00000000	          0.00000000	          0.00000000	        -19.43648490	        813.41203142	        -43.46808879	          0.49528896	          0.00000000	          0.12252898	          0.00000000	          0.00000000	          0.00000000	          0.00000000	          0.91886655	          0.00000000	
          1.85100000	          0.00000000	          0.00000000	          0.00000000	          0.00000000	          0.00000000	          0.00000000	        -19.09457859	        812.22722802	        -43.29963061	          0.49559928	          0.00000000	          0.12262133	          0.00000000	          0.00000000	          0.00000000	          0.00000000	          0.85148945	          0.00000000	
          1.85200000	          0.00000000	          0.00000000	          0.00000000	          0.00000000	          0.00000000	          0.00000000	        -18.75202811	        811.02852884	        -43.13330260	          0.49587690	          0.00000000	          0.12270468	          0.00000000	          0.00000000	          0.00000000	          0.00000000	          0.78772566	          0.00000000	
